<svg width="70" height="70" viewBox="0 0 70 70" fill="none" xmlns="http://www.w3.org/2000/svg">
<path fill-rule="evenodd" clip-rule="evenodd" d="M35.7066 18.8746C44.129 26.2289 48.4101 32.6504 48.4101 38.295C48.4101 46.2886 42.1711 52 34.705 52C27.2389 52 21 46.2886 21 38.295C21 32.6504 25.281 26.2289 33.7035 18.8746L34.705 18L35.7066 18.8746ZM24.0456 38.295C24.0456 44.5435 28.8638 48.9544 34.705 48.9544C40.5462 48.9544 45.3645 44.5435 45.3645 38.295C45.3645 33.9562 41.852 28.4981 34.705 22.0569C27.558 28.4981 24.0456 33.9562 24.0456 38.295ZM34.705 44.3861V47.4317C39.7511 47.4317 43.8417 43.341 43.8417 38.295H40.7962C40.7962 41.659 38.0691 44.3861 34.705 44.3861Z" fill="#23B0FF"/>
<circle cx="35" cy="35" r="35" fill="#713BDB" fill-opacity="0.05"/>
</svg>
