<svg width="70" height="70" viewBox="0 0 70 70" fill="none" xmlns="http://www.w3.org/2000/svg">
<circle cx="35" cy="35" r="35" fill="#713BDB" fill-opacity="0.05"/>
<path fill-rule="evenodd" clip-rule="evenodd" d="M18.8144 20.125H50.1856C51.901 20.125 53.2917 21.6547 53.2917 23.5417V44.0417C53.2917 45.9286 51.901 47.4583 50.1856 47.4583H18.8144C17.099 47.4583 15.7083 45.9286 15.7083 44.0417V23.5417C15.7083 21.6547 17.099 20.125 18.8144 20.125ZM19.125 23.5417V44.0417H49.875V23.5417H19.125ZM22.5417 37.2083V40.625H25.9583V37.2083H22.5417ZM27.6667 40.625V37.2083H32.7917V40.625H27.6667ZM43.0417 37.2083V40.625H46.4583V37.2083H43.0417ZM37.9167 40.625V37.2083H41.3333V40.625H37.9167ZM27.6667 28.6667H22.5417V33.7917H27.6667V28.6667Z" fill="#23B0FF"/>
</svg>
