<svg width="70" height="70" viewBox="0 0 70 70" fill="none" xmlns="http://www.w3.org/2000/svg">
<circle cx="35" cy="35" r="35" fill="#713BDB" fill-opacity="0.05"/>
<path fill-rule="evenodd" clip-rule="evenodd" d="M28.6 25.4H25.4V23.8H22.2V28.6H47.8V23.8H44.6V25.4H41.4V23.8H28.6V25.4ZM47.8 31.8H22.2V47.8H47.8V31.8ZM41.4 20.6H28.6V19H25.4V20.6H22.2C20.4327 20.6 19 22.0327 19 23.8V47.8C19 49.5673 20.4327 51 22.2 51H47.8C49.5673 51 51 49.5673 51 47.8V23.8C51 22.0327 49.5673 20.6 47.8 20.6H44.6V19H41.4V20.6ZM30.2 38.2H27V35H30.2V38.2ZM33.4 38.2H36.6V35H33.4V38.2ZM43 38.2H39.8V35H43V38.2ZM27 44.6H30.2V41.4H27V44.6ZM36.6 44.6H33.4V41.4H36.6V44.6Z" fill="#23B0FF"/>
</svg>
